<svg xmlns="http://www.w3.org/2000/svg" width="32" height="32" viewBox="0 0 32 32" fill="none">
                                                <path fill-rule="evenodd" clip-rule="evenodd" d="M16 5C15.8922 5 15.7865 5.02989 15.6946 5.08636C15.6028 5.14284 15.5283 5.22368 15.4796 5.31994L15.4786 5.322L12.1496 11.8635C11.9789 12.1988 11.6345 12.4099 11.2583 12.4099H5.58911L5.5647 12.4096C5.45382 12.4069 5.34469 12.4378 5.25159 12.4981C5.15849 12.5584 5.08573 12.6454 5.04284 12.7478C4.99996 12.8501 4.98895 12.9631 5.01126 13.0718C5.03358 13.1805 5.08817 13.2799 5.16788 13.3571L5.17382 13.3629L10.3792 18.4863C10.6742 18.7766 10.7599 19.2187 10.5946 19.5981L7.71418 26.2144C7.66971 26.3233 7.65999 26.4433 7.68644 26.558C7.71327 26.6744 7.77598 26.7794 7.86569 26.8583C7.95539 26.9371 8.06757 26.9857 8.18638 26.9973C8.30519 27.0089 8.42464 26.9829 8.52789 26.9229L8.53973 26.9161L15.5097 22.995C15.8141 22.8237 16.1859 22.8237 16.4903 22.995L23.4722 26.9229C23.5754 26.9828 23.6948 27.0089 23.8136 26.9973C23.9324 26.9857 24.0446 26.9371 24.1343 26.8583C24.224 26.7794 24.2867 26.6744 24.3136 26.558C24.34 26.4433 24.3303 26.3233 24.2858 26.2144L21.4054 19.5981C21.24 19.2183 21.3259 18.7758 21.6215 18.4855L26.8321 13.3678C26.9118 13.2906 26.9664 13.1912 26.9887 13.0824C27.0111 12.9737 27 12.8608 26.9572 12.7584C26.9143 12.6561 26.8415 12.569 26.7484 12.5087C26.6553 12.4484 26.5462 12.4176 26.4353 12.4203L26.4109 12.4206H20.7417C20.3652 12.4206 20.0207 12.2092 19.8501 11.8736L16.5204 5.31994C16.4717 5.22368 16.3972 5.14284 16.3054 5.08636C16.2135 5.02989 16.1078 5 16 5ZM14.6472 3.38258C15.0541 3.13243 15.5224 3 16 3C16.4776 3 16.9459 3.13243 17.3528 3.38258C17.7594 3.63255 18.0888 3.99028 18.3045 4.41606L21.3553 10.4206H26.4002C26.9088 10.4109 27.4087 10.5535 27.8358 10.8302C28.2668 11.1093 28.6034 11.512 28.8018 11.9856C29.0002 12.4592 29.0511 12.9816 28.9479 13.4845C28.845 13.9861 28.5935 14.4451 28.2262 14.8018L28.2232 14.8047L23.5137 19.4304L26.1285 25.4366C26.3366 25.9332 26.3834 26.4827 26.2624 27.0073C26.1415 27.532 25.8588 28.0054 25.4543 28.3608C25.0498 28.7162 24.5439 28.9355 24.008 28.9878C23.4747 29.0399 22.9385 28.924 22.4744 28.6563L16 25.0139L9.52555 28.6563C9.06148 28.924 8.52531 29.0399 7.99199 28.9878C7.4561 28.9355 6.95019 28.7162 6.54568 28.3608C6.14118 28.0054 5.85851 27.532 5.73755 27.0073C5.6166 26.4827 5.66347 25.9332 5.87155 25.4366L5.87689 25.4239L8.48665 19.4297L3.77342 14.7908C3.40635 14.4341 3.15501 13.9753 3.0521 13.4739C2.94887 12.9709 2.99979 12.4485 3.19819 11.9749C3.39659 11.5014 3.73325 11.0987 4.16417 10.8195C4.59126 10.5428 5.09124 10.4003 5.59981 10.4099H10.6452L13.6951 4.41695L13.6957 4.41571C13.9114 3.99009 14.2407 3.63248 14.6472 3.38258Z" fill="#212121"></path>
                                              </svg>