<svg xmlns="http://www.w3.org/2000/svg" width="32" height="32" viewBox="0 0 32 32" fill="none">
                                                <g id="SafeArea">
                                                  <g id="Group 1635">
                                                    <path id="Vector" d="M27.8366 15.6667H27.1013C26.9465 14.8667 26.6239 14.1867 26.095 13.6667C25.2435 12.8 23.9534 12.3733 22.0956 12.3333C21.27 10.1733 19.1413 9 16.0063 9C12.8713 9 10.7426 10.1733 9.91695 12.3333C8.05918 12.3733 6.78197 12.8 5.91759 13.6667C5.38865 14.2 5.06612 14.8667 4.9113 15.6667H4.17594C3.776 15.6667 3.40187 15.8267 3.10514 16.12C2.80842 16.4133 2.6665 16.8 2.6665 17.2267V26.6667C2.6665 27.52 3.00193 28.3467 3.58249 28.9467C4.17594 29.56 4.95001 29.8933 5.78858 29.8933H26.2111C27.0368 29.8933 27.8366 29.5467 28.4172 28.9467C28.9977 28.3467 29.3332 27.52 29.3332 26.6667V17.2267C29.3332 16.8133 29.1784 16.4267 28.8945 16.12C28.6107 15.8133 28.2366 15.6667 27.8366 15.6667ZM7.27221 15.0933C7.82696 14.5333 8.93646 14.2933 10.6007 14.3333C11.0651 14.36 11.4651 14.0267 11.5683 13.56C11.9424 11.8667 13.4261 11 16.0063 11C18.5865 11 20.0702 11.8533 20.4443 13.56C20.5475 14.0267 20.8829 14.3733 21.4119 14.3333C23.0761 14.2933 24.1856 14.5467 24.7404 15.0933C24.8952 15.24 24.9984 15.44 25.0758 15.6667H6.93678C7.02709 15.44 7.1303 15.2533 7.27221 15.0933ZM27.398 17.6667V17.8933H18.6897C18.2898 17.8933 17.9157 18.0533 17.6318 18.3467C17.348 18.64 17.1932 19.04 17.1932 19.4533V20.0133C17.1932 20.3333 17.0642 20.6533 16.8449 20.88C16.3933 21.3467 15.6193 21.3467 15.1677 20.88C14.9484 20.6533 14.8194 20.3333 14.8194 20.0133V19.4533C14.8194 19.04 14.6646 18.64 14.3807 18.3467C14.0969 18.0533 13.7228 17.8933 13.3099 17.8933H4.61458V17.6667H27.4109H27.398ZM12.8842 19.8933V20C12.8842 20.8667 13.2067 21.6667 13.8002 22.28C14.3936 22.8933 15.1677 23.2267 16.0063 23.2267C16.8449 23.2267 17.6189 22.8933 18.2124 22.28C18.8058 21.6667 19.1284 20.8533 19.1284 20V19.8933H20.9603V27.8933H11.0651V19.8933H12.8842ZM4.95001 27.5333C4.73069 27.3067 4.60168 26.9867 4.60168 26.6667V19.8933H9.11708V27.8933H5.77568C5.45315 27.8933 5.15642 27.76 4.93711 27.5333H4.95001ZM27.0497 27.5333C26.8303 27.76 26.5207 27.8933 26.2111 27.8933H22.8826V19.8933H27.398V26.6667C27.398 26.9867 27.269 27.3067 27.0497 27.5333Z" fill="#212121"></path>
                                                    <path id="Vector_2" d="M16.0125 20.9992C16.5412 20.9992 16.9796 20.5459 16.9796 19.9992V18.8926C16.9796 18.3459 16.5412 17.8926 16.0125 17.8926C15.4838 17.8926 15.0454 18.3459 15.0454 18.8926V19.9992C15.0454 20.5459 15.4838 20.9992 16.0125 20.9992Z" fill="#212121"></path>
                                                    <path id="Vector_3" d="M3.64632 12.1064H4.71659C5.24528 12.1064 5.68371 11.6531 5.68371 11.1064C5.68371 10.5598 5.24528 10.1064 4.71659 10.1064H3.64632C3.11763 10.1064 2.6792 10.5598 2.6792 11.1064C2.6792 11.6531 3.11763 12.1064 3.64632 12.1064Z" fill="#212121"></path>
                                                    <path id="Vector_4" d="M8.34049 6.81293C8.53391 7.01293 8.77891 7.10626 9.02392 7.10626C9.26892 7.10626 9.51392 7.01293 9.70735 6.81293C10.0813 6.42626 10.0813 5.78626 9.70735 5.3996L8.63707 4.29293C8.26312 3.90626 7.64416 3.90626 7.27021 4.29293C6.89626 4.6796 6.89626 5.3196 7.27021 5.70626L8.34049 6.81293Z" fill="#212121"></path>
                                                    <path id="Vector_5" d="M27.2957 12.1064H28.366C28.8947 12.1064 29.3331 11.6531 29.3331 11.1064C29.3331 10.5598 28.8947 10.1064 28.366 10.1064H27.2957C26.767 10.1064 26.3286 10.5598 26.3286 11.1064C26.3286 11.6531 26.767 12.1064 27.2957 12.1064Z" fill="#212121"></path>
                                                    <path id="Vector_6" d="M22.9888 7.10626C23.2338 7.10626 23.4788 7.01293 23.6722 6.81293L24.7425 5.70626C25.1165 5.3196 25.1165 4.6796 24.7425 4.29293C24.3686 3.90626 23.7496 3.90626 23.3756 4.29293L22.3054 5.3996C21.9314 5.78626 21.9314 6.42626 22.3054 6.81293C22.4988 7.01293 22.7438 7.10626 22.9888 7.10626Z" fill="#212121"></path>
                                                    <path id="Vector_7" d="M16.0125 5.99967C16.5412 5.99967 16.9796 5.54634 16.9796 4.99967V3.33301C16.9796 2.78634 16.5412 2.33301 16.0125 2.33301C15.4838 2.33301 15.0454 2.78634 15.0454 3.33301V4.99967C15.0454 5.54634 15.4838 5.99967 16.0125 5.99967Z" fill="#212121"></path>
                                                  </g>
                                                </g>
                                              </svg>