<svg xmlns="http://www.w3.org/2000/svg" width="32" height="32" viewBox="0 0 32 32" fill="none">
                                                <g id="SafeArea">
                                                  <path id="Icon" fill-rule="evenodd" clip-rule="evenodd" d="M25.7499 4.15083L25.7505 4.15267L26.5113 6.59031C26.7236 7.285 26.4531 8.02777 25.8578 8.42101C25.5989 8.59359 25.4494 8.8919 25.4717 9.21133L25.4725 9.22325C25.5016 9.72545 25.8962 10.0391 26.3 10.0138L26.3173 10.0127C27.0617 9.97901 27.6942 10.457 27.9088 11.1272L27.911 11.1342L28.6688 13.5622C28.8606 14.1484 28.7914 14.7523 28.5393 15.2553C28.2918 15.749 27.6909 15.9487 27.1972 15.7012C26.7034 15.4537 26.5038 14.8529 26.7513 14.3591C26.7828 14.2963 26.7854 14.2367 26.7676 14.1832L26.7618 14.1656L26.0895 12.0109C24.6787 11.9301 23.5621 10.7798 23.4762 9.34473C23.4124 8.4045 23.8095 7.50818 24.5207 6.92541L23.8402 4.74508L23.8392 4.74163C23.8164 4.6676 23.7756 4.63004 23.7413 4.61198C23.7073 4.59409 23.6661 4.58758 23.6156 4.60426L16.1695 7.1064L17.9774 13.4708C18.1284 14.002 17.82 14.555 17.2888 14.706C16.7575 14.8569 16.2045 14.5485 16.0536 14.0173L14.2715 7.74418L7.79506 9.92048C7.72073 9.9453 7.61979 10.0576 7.67354 10.234L8.34594 12.3884C8.9312 12.4258 9.47781 12.648 9.91674 13.007C10.3443 13.3567 10.4074 13.9867 10.0577 14.4142C9.70808 14.8417 9.07807 14.9048 8.65056 14.5552C8.50561 14.4366 8.32184 14.3733 8.12691 14.384L8.11742 14.3845C7.37308 14.4182 6.74062 13.9403 6.52601 13.2701L6.52375 13.2631L5.76258 10.8242C5.41344 9.69112 5.97691 8.41962 7.16066 8.02377L22.9816 2.7074C24.1602 2.3139 25.3874 2.97772 25.7499 4.15083ZM12.8889 13.5014C13.03 13.4616 13.2206 13.53 13.2873 13.7613C13.4402 14.292 13.9944 14.5982 14.5251 14.4453C15.0558 14.2923 15.362 13.7381 15.2091 13.2074C14.8488 11.9575 13.5699 11.2091 12.31 11.5869L12.31 11.5869L12.3017 11.5895C11.5115 11.834 10.9684 12.4654 10.7516 13.1628C10.5877 13.6902 10.8823 14.2507 11.4097 14.4146C11.9371 14.5785 12.4976 14.2838 12.6615 13.7564C12.7053 13.6154 12.8012 13.5302 12.8889 13.5014ZM3.22412 17.2798C3.22412 15.9495 4.39289 15.0435 5.60184 15.0435H13.7256H24.9374C26.1463 15.0435 27.3151 15.9495 27.3151 17.2798V19.8389C27.3151 20.6729 26.6944 21.2407 26.0467 21.4025L26.0283 21.4069C25.4925 21.5301 25.2485 21.9112 25.2485 22.225V22.2373C25.2485 22.5426 25.4967 22.9332 26.0283 23.0553L26.0467 23.0598C26.6944 23.2215 27.3151 23.7893 27.3151 24.6234V27.1825C27.3151 28.5128 26.1463 29.4188 24.9374 29.4188H5.60184C4.39289 29.4188 3.22412 28.5128 3.22412 27.1825V24.6234C3.22412 23.7893 3.84482 23.2215 4.49245 23.0598L4.50599 23.0564C4.92893 22.957 5.1914 22.6766 5.27064 22.4047C5.36807 22.0648 5.16044 21.5524 4.51638 21.4082L4.49245 21.4025C3.84482 21.2407 3.22412 20.6729 3.22412 19.8389V17.2798ZM5.60184 17.0435H12.7256V27.4188H5.60184C5.46569 27.4188 5.36002 27.369 5.29625 27.3117C5.23378 27.2556 5.22412 27.2077 5.22412 27.1825V24.9306C6.15632 24.6276 6.9159 23.912 7.19173 22.9609L7.1922 22.9593C7.63663 21.4173 6.64681 19.9849 5.22412 19.53V17.2798C5.22412 17.2546 5.23378 17.2067 5.29625 17.1506C5.36002 17.0933 5.46569 17.0435 5.60184 17.0435ZM14.7256 17.0435V27.4188H24.9374C25.0735 27.4188 25.1792 27.369 25.2429 27.3117C25.3054 27.2556 25.3151 27.2077 25.3151 27.1825V24.9314C24.1447 24.5537 23.2485 23.5181 23.2485 22.2373V22.225C23.2485 20.9293 24.148 19.9061 25.3151 19.5308V17.2798C25.3151 17.2546 25.3054 17.2067 25.2429 17.1506C25.1792 17.0933 25.0735 17.0435 24.9374 17.0435H14.7256ZM9.59481 22.4104C9.59481 22.1597 9.78007 22.0257 9.92502 22.0257C10.07 22.0257 10.2552 22.1597 10.2552 22.4104C10.2552 22.661 10.07 22.795 9.92502 22.795C9.78007 22.795 9.59481 22.661 9.59481 22.4104ZM9.92502 20.0257C8.60066 20.0257 7.59481 21.1315 7.59481 22.4104C7.59481 23.6892 8.60066 24.795 9.92502 24.795C11.2494 24.795 12.2552 23.6892 12.2552 22.4104C12.2552 21.1315 11.2494 20.0257 9.92502 20.0257Z" fill="#212121"></path>
                                                </g>
                                              </svg>