<svg xmlns="http://www.w3.org/2000/svg" width="32" height="32" viewBox="0 0 32 32" fill="none">
                                                <g id="SafeArea">
                                                  <path id="Icon" fill-rule="evenodd" clip-rule="evenodd" d="M16.0002 3C15.7354 3 15.474 3.05734 15.2337 3.1678C14.9934 3.27825 14.7801 3.43907 14.6079 3.63879C14.5825 3.66825 14.5588 3.69917 14.537 3.73139L9.87434 10.6204L5.16562 7.00181C5.11627 6.96388 5.06347 6.93064 5.00794 6.90253C4.70545 6.7494 4.36645 6.68273 4.02809 6.71044C3.68975 6.73815 3.36629 6.85904 3.09286 7.05888C2.81951 7.25866 2.60691 7.52941 2.47696 7.84078C2.34815 8.14942 2.30506 8.48705 2.35182 8.81782L3.83727 20.1302C3.90263 20.6279 4.3268 21 4.82876 21H27.1716C27.6735 21 28.0977 20.6279 28.1631 20.1302L29.6485 8.81798C29.6953 8.48716 29.6522 8.14947 29.5234 7.84078C29.3934 7.5294 29.1808 7.25865 28.9075 7.05888C28.634 6.85904 28.3106 6.73815 27.9722 6.71044C27.6339 6.68273 27.2949 6.7494 26.9924 6.90253C26.9368 6.93069 26.8839 6.96398 26.8345 7.00199L22.127 10.6218L17.4633 3.73139C17.4415 3.69917 17.4179 3.66825 17.3924 3.63879C17.2202 3.43907 17.0069 3.27825 16.7667 3.1678C16.5264 3.05734 16.265 3 16.0002 3ZM11.4353 11.8822L16.0002 5.13775L20.5641 11.8808C20.7072 12.0924 20.8928 12.2725 21.1095 12.4091C21.3264 12.5457 21.5695 12.6358 21.8236 12.6731C22.0776 12.7104 22.3366 12.694 22.5839 12.6251C22.8249 12.5579 23.0494 12.4423 23.2439 12.2859L27.6176 8.92275L26.2943 19H5.70603L4.38274 8.92253L8.75612 12.2834C8.95011 12.4397 9.17399 12.5554 9.41452 12.6228C9.6616 12.6921 9.92042 12.709 10.1745 12.6721C10.4285 12.6353 10.6717 12.5457 10.8888 12.4095C11.1058 12.2733 11.2917 12.0936 11.4353 11.8822ZM5.3335 24.3333C4.78121 24.3333 4.3335 24.781 4.3335 25.3333C4.3335 25.8856 4.78121 26.3333 5.3335 26.3333H26.6668C27.2191 26.3333 27.6668 25.8856 27.6668 25.3333C27.6668 24.781 27.2191 24.3333 26.6668 24.3333H5.3335Z" fill="#212121"></path>
                                                </g>
                                              </svg>