<svg xmlns="http://www.w3.org/2000/svg" width="32" height="32" viewBox="0 0 32 32" fill="none">
                                                <g id="SafeArea">
                                                  <path id="Icon" fill-rule="evenodd" clip-rule="evenodd" d="M13.0705 2.33301C13.6228 2.33301 14.0705 2.78072 14.0705 3.33301V3.93755C14.0705 5.0308 14.94 5.92333 16.0282 5.95929C17.1164 5.92333 17.9859 5.0308 17.9859 3.93755V3.33301C17.9859 2.78072 18.4336 2.33301 18.9859 2.33301C19.0997 2.33301 19.209 2.35201 19.3109 2.387L19.3119 2.38403L19.6008 2.48L26.5726 4.80241C26.8569 4.89709 27.0838 5.1143 27.1908 5.39424C27.1952 5.40578 27.1994 5.41738 27.2034 5.42903C28.8233 8.71437 29.6668 12.3278 29.6668 15.9921V16.0283C29.6668 16.5806 29.2191 17.0283 28.6668 17.0283H24.8367V28.6633C24.8367 28.9286 24.7313 29.1829 24.5437 29.3705C24.3561 29.558 24.1017 29.6634 23.8364 29.6633L19.9565 29.6625C17.7282 29.6622 14.9233 29.6618 12.6168 29.6618C10.756 29.6618 9.22091 29.6618 8.57355 29.6625L8.32933 29.6626L8.27184 29.6628C8.07874 29.6687 7.88487 29.6187 7.71529 29.5139C7.42055 29.3316 7.24115 29.0098 7.24115 28.6633V17.0283H3.3335C2.78121 17.0283 2.3335 16.5806 2.3335 16.0283V15.9921C2.3335 12.2811 3.19861 8.62233 4.85923 5.30365C5.01126 4.99983 5.30597 4.7958 5.63968 4.75763L12.6719 2.41561C12.794 2.36247 12.9288 2.33301 13.0705 2.33301ZM16.0595 7.9592C17.9794 7.91221 19.5672 6.5227 19.9151 4.69298L24.8111 6.32384C23.5087 8.97385 22.8275 11.892 22.8268 14.8553V16.0283C22.8268 16.0762 22.8302 16.1234 22.8367 16.1695V27.6631L19.9569 27.6625C17.7285 27.6622 14.9235 27.6618 12.6168 27.6618C11.2368 27.6618 10.0347 27.6618 9.24115 27.6621L9.24115 14.8553C9.24045 11.8931 8.55973 8.97589 7.25817 6.3266L12.1426 4.69987C12.4931 6.52618 14.0794 7.91227 15.9969 7.9592L16.0214 7.9595H16.035L16.0595 7.9592ZM24.8367 15.0283H27.6456C27.5411 12.6591 27.0521 10.3254 26.2003 8.11724C25.3036 10.2436 24.8372 12.5342 24.8367 14.8556V15.0283ZM5.80477 8.10498C4.95003 10.3168 4.45941 12.6548 4.35474 15.0283H7.17354V14.8558C7.17296 12.5299 6.70482 10.2347 5.80477 8.10498ZM16.0002 9.66634C15.7177 9.66634 15.4407 9.74467 15.2001 9.89261C14.9599 10.0403 14.7652 10.2516 14.6377 10.503L13.8065 12.1363H12.5389C12.2389 12.132 11.9444 12.2168 11.6924 12.38C11.4362 12.546 11.236 12.7855 11.118 13.067C11 13.3486 10.9698 13.6593 11.0311 13.9583C11.0922 14.2557 11.241 14.5279 11.4583 14.7397L12.7016 15.9634L12.0145 17.5415L12.0091 17.5542C11.8858 17.8486 11.858 18.1742 11.9297 18.4852C12.0014 18.7962 12.169 19.0768 12.4087 19.2874C12.6485 19.4981 12.9484 19.6281 13.266 19.6591C13.5808 19.6899 13.8973 19.6218 14.1716 19.4646L16.0002 18.4359L17.8287 19.4646C18.103 19.6218 18.4195 19.6899 18.7343 19.6591C19.052 19.6281 19.3518 19.4981 19.5916 19.2874C19.8314 19.0768 19.9989 18.7962 20.0706 18.4852C20.1423 18.1742 20.1146 17.8486 19.9913 17.5542L19.299 15.9641L20.5415 14.7437C20.7591 14.5318 20.9081 14.2594 20.9692 13.9619C21.0306 13.6628 21.0003 13.3522 20.8823 13.0706C20.7643 12.789 20.5642 12.5496 20.3079 12.3836C20.056 12.2203 19.7614 12.1356 19.4615 12.1399H18.1943L17.363 10.5038C17.2355 10.252 17.0407 10.0404 16.8002 9.89261C16.5596 9.74467 16.2827 9.66634 16.0002 9.66634ZM16.6892 13.5928L15.9998 12.236L15.3108 13.5899C15.1402 13.9252 14.7958 14.1363 14.4196 14.1363H13.6964L14.5942 15.02C14.8892 15.3103 14.9748 15.7523 14.8096 16.1318L14.4181 17.0312L15.5098 16.417C15.8143 16.2457 16.186 16.2457 16.4905 16.417L17.5822 17.0312L17.1907 16.1318C17.0253 15.752 17.1113 15.3095 17.4068 15.0192L18.3022 14.1399H17.5807C17.2043 14.1399 16.8597 13.9285 16.6892 13.5928Z" fill="#212121"></path>
                                                </g>
                                              </svg>